<?xml version="1.0" encoding="UTF-8"?>
<!DOCTYPE svg PUBLIC "-//W3C//DTD SVG 1.1//EN" "http://www.w3.org/Graphics/SVG/1.1/DTD/svg11.dtd">
<!-- Creator: CorelDRAW X8 -->
<svg xmlns="http://www.w3.org/2000/svg" xml:space="preserve" width="106.093mm" height="13.1509mm" version="1.1" style="shape-rendering:geometricPrecision; text-rendering:geometricPrecision; image-rendering:optimizeQuality; fill-rule:evenodd; clip-rule:evenodd"
viewBox="0 0 29055 3602"
 xmlns:xlink="http://www.w3.org/1999/xlink">
 <defs>
  <style type="text/css">
   <![CDATA[
    .fil0 {fill:black;fill-rule:nonzero}
   ]]>
  </style>
 </defs>
 <g id="Слой_x0020_1">
  <metadata id="CorelCorpID_0Corel-Layer"/>
  <path class="fil0" d="M2426 1866c-51,-47 -140,-65 -247,-70 -229,-1493 -481,-1796 -826,-1796 -243,0 -420,107 -625,560 -252,555 -331,956 -411,1446l-284 56c-5,23 -10,47 -10,70 0,89 47,149 126,149l126 -9c-28,168 -60,350 -98,550 -37,196 -112,378 -177,574 61,154 168,206 345,206 275,0 392,-276 443,-579 42,-243 80,-532 122,-821 242,-28 536,-56 797,-89 14,224 19,453 19,677 0,210 -33,401 -60,611 79,79 307,107 377,107 248,0 248,-284 248,-485 0,-429 -38,-704 -75,-970 79,-14 135,-24 149,-28 52,-10 89,-52 89,-94 0,-23 -5,-46 -28,-65zm-1470 28c66,-443 131,-863 206,-1115 74,-252 168,-354 228,-354 103,0 192,550 266,1091 14,93 23,191 33,289 -233,19 -490,52 -733,89z"/>
  <path id="1" class="fil0" d="M3760 3023c-60,19 -116,23 -163,23 -229,0 -322,-168 -364,-634 -37,-411 33,-1208 37,-1582 5,-335 -116,-536 -480,-536 -47,0 -107,0 -163,9 23,420 28,1190 28,1656 0,1111 181,1531 769,1531 80,0 350,-38 350,-327 0,-42 -4,-89 -14,-140z"/>
  <path id="2" class="fil0" d="M5304 2771c-84,79 -228,252 -438,252 -112,0 -219,-56 -299,-201 313,-158 728,-433 728,-881 0,-355 -247,-551 -588,-551 -518,0 -840,513 -840,1045 0,700 537,994 929,994 298,0 620,-173 620,-425 0,-79 -9,-191 -112,-233zm-569 -1008c61,0 205,10 205,159 0,271 -228,453 -461,611 -10,-70 -14,-149 -14,-238 0,-378 163,-532 270,-532z"/>
  <path id="3" class="fil0" d="M6699 2459c201,-318 420,-649 691,-882 -61,-131 -215,-182 -322,-173 -257,14 -341,308 -639,784 -150,-168 -252,-331 -252,-504 0,-75 14,-149 51,-233 -9,-47 -75,-84 -163,-84 -163,0 -369,201 -369,443 0,238 192,532 443,793 -214,285 -345,411 -620,532 42,187 154,294 294,294 224,0 420,-233 625,-551 289,234 588,397 746,397 122,0 248,-140 262,-289 -248,-131 -513,-317 -747,-527z"/>
  <path id="4" class="fil0" d="M9382 2496c0,-131 0,-415 37,-583 -51,-201 -345,-476 -700,-476 -643,0 -1138,625 -1138,1269 0,382 252,662 597,662 299,0 667,-256 798,-616 23,192 126,509 420,509 65,0 168,-19 228,-70 -116,-121 -242,-490 -242,-695zm-1101 392c-70,0 -103,-112 -103,-206 0,-312 317,-956 569,-956 75,0 126,56 154,131 -51,298 -354,1031 -620,1031z"/>
  <path id="5" class="fil0" d="M11686 2706c0,-168 14,-275 14,-523 0,-350 -51,-667 -485,-667 -168,0 -406,47 -863,859 0,-271 28,-579 28,-700 0,-233 -130,-327 -280,-327 -121,0 -256,61 -354,150 32,121 42,251 42,382 0,238 -33,541 -33,821 0,317 33,611 397,611 79,0 130,-14 186,-42 322,-1250 663,-1418 728,-1418 23,0 37,19 37,98 0,121 -18,429 -18,737 0,495 251,728 480,728 126,0 252,-79 289,-182 -102,-103 -168,-266 -168,-527z"/>
  <path id="6" class="fil0" d="M13767 1903c0,-475 51,-1012 215,-1469 -108,-107 -192,-163 -294,-163 -383,0 -453,550 -453,1441l0 79c-149,-144 -331,-219 -518,-219 -975,0 -1017,1782 5,1782 294,0 499,-158 625,-373 70,238 191,406 387,406 154,0 252,-65 262,-140 -224,-289 -229,-737 -229,-1344zm-924 1073c-135,0 -275,-135 -275,-489 0,-322 140,-518 313,-518 168,0 270,116 350,261 -47,513 -234,746 -388,746z"/>
  <path id="7" class="fil0" d="M16034 2169l0 -60c0,-364 -32,-667 -480,-667 -168,0 -527,144 -812,937 -14,-270 0,-578 -5,-700 -14,-233 -149,-326 -298,-326 -121,0 -252,61 -345,149 56,177 65,345 65,532 0,154 -9,350 -9,532 0,340 4,774 429,774 79,0 158,-14 214,-42 220,-1236 532,-1516 598,-1516 23,0 28,93 28,145 0,289 177,326 307,326 80,0 182,-9 308,-84z"/>
  <path id="8" class="fil0" d="M17928 2496c0,-131 0,-415 38,-583 -52,-201 -345,-476 -700,-476 -644,0 -1138,625 -1138,1269 0,382 252,662 597,662 298,0 667,-256 798,-616 23,192 126,509 419,509 66,0 168,-19 229,-70 -117,-121 -243,-490 -243,-695zm-1101 392c-70,0 -102,-112 -102,-206 0,-312 317,-956 569,-956 75,0 126,56 154,131 -51,298 -355,1031 -621,1031z"/>
  <path id="9" class="fil0" d="M21502 1973c0,-140 -126,-191 -243,-191 -224,0 -1129,70 -1157,121 -9,33 -18,80 -18,131 0,196 149,252 345,252 42,0 89,0 131,-5l0 42c0,341 -332,896 -672,896 -490,0 -793,-490 -793,-1362 0,-541 177,-1470 756,-1470 485,0 293,504 774,504 112,0 252,-93 336,-154 0,0 -238,-662 -1101,-662 -971,0 -1474,961 -1474,1791 0,803 354,1726 1399,1726 747,0 1353,-592 1320,-1348l0 -5c145,-14 285,-37 346,-65 23,-51 51,-126 51,-201z"/>
  <path id="10" class="fil0" d="M23620 2169l0 -60c0,-364 -33,-667 -481,-667 -167,0 -527,144 -811,937 -14,-270 0,-578 -5,-700 -14,-233 -149,-326 -298,-326 -122,0 -252,61 -346,149 56,177 66,345 66,532 0,154 -10,350 -10,532 0,340 5,774 429,774 80,0 159,-14 215,-42 219,-1236 532,-1516 597,-1516 24,0 28,93 28,145 0,289 177,326 308,326 79,0 182,-9 308,-84z"/>
  <path id="11" class="fil0" d="M25514 2496c0,-131 0,-415 37,-583 -51,-201 -345,-476 -699,-476 -644,0 -1139,625 -1139,1269 0,382 252,662 597,662 299,0 668,-256 798,-616 24,192 126,509 420,509 65,0 168,-19 229,-70 -117,-121 -243,-490 -243,-695zm-1101 392c-70,0 -103,-112 -103,-206 0,-312 318,-956 570,-956 74,0 126,56 154,131 -52,298 -355,1031 -621,1031z"/>
  <path id="12" class="fil0" d="M28887 2669c0,-215 37,-490 37,-710 0,-256 -144,-419 -377,-419 -360,0 -551,279 -724,676 5,-56 5,-112 5,-163 0,-327 -140,-555 -406,-555 -466,0 -648,583 -882,1124 10,-154 14,-336 14,-509 0,-364 -79,-667 -349,-667 -108,0 -220,47 -304,126 164,485 98,1013 47,1605 93,98 224,149 345,149 541,0 849,-1399 1013,-1399 51,0 46,233 46,308 0,378 -74,732 -88,821 74,116 186,182 303,182 214,0 368,-341 494,-667 117,-290 206,-565 304,-565 14,0 28,19 28,51 0,234 -42,374 -42,602 0,532 140,733 419,733 117,0 262,-61 285,-136 -107,-140 -168,-242 -168,-587z"/>
 </g>
</svg>
